# Apple ModelIO OBJ File: choo-choo
mtllib choo-choo.mtl
g 
v 0.305596 -0.003762 0.192876
v 0.305596 -0.033025 0.195759
v 0.265596 -0.033025 0.195759
v 0.265596 -0.003762 0.192876
v 0.305596 -0.061164 0.204295
v 0.265596 -0.061164 0.204295
v 0.305596 -0.087097 0.218156
v 0.265596 -0.087097 0.218156
v 0.305596 -0.109828 0.23681
v 0.265596 -0.109828 0.23681
v 0.305596 -0.128482 0.259541
v 0.265596 -0.128482 0.259541
v 0.305596 -0.142343 0.285474
v 0.265596 -0.142343 0.285474
v 0.305596 -0.150879 0.313613
v 0.265596 -0.150879 0.313613
v 0.305596 -0.153762 0.342876
v 0.265596 -0.153762 0.342876
v 0.305596 -0.150879 0.37214
v 0.265596 -0.150879 0.37214
v 0.305596 -0.142343 0.400279
v 0.265596 -0.142343 0.400279
v 0.305596 -0.128482 0.426212
v 0.265596 -0.128482 0.426212
v 0.305596 -0.109828 0.448943
v 0.265596 -0.109828 0.448943
v 0.305596 -0.087097 0.467597
v 0.265596 -0.087097 0.467597
v 0.305596 -0.061164 0.481458
v 0.265596 -0.061164 0.481458
v 0.305596 -0.033025 0.489994
v 0.265596 -0.033025 0.489994
v 0.305596 -0.003761 0.492876
v 0.265596 -0.003761 0.492876
v 0.305596 0.025502 0.489994
v 0.265596 0.025502 0.489994
v 0.305596 0.053641 0.481458
v 0.265596 0.053641 0.481458
v 0.305596 0.079574 0.467597
v 0.265596 0.079574 0.467597
v 0.305596 0.102305 0.448942
v 0.265596 0.102305 0.448942
v 0.305596 0.120959 0.426212
v 0.265596 0.120959 0.426212
v 0.305596 0.13482 0.400279
v 0.265596 0.13482 0.400279
v 0.305596 0.143356 0.37214
v 0.265596 0.143356 0.37214
v 0.305596 0.146238 0.342876
v 0.265596 0.146238 0.342876
v 0.305596 0.143356 0.313613
v 0.265596 0.143356 0.313613
v 0.305596 0.13482 0.285474
v 0.265596 0.13482 0.285474
v 0.305596 0.120959 0.259541
v 0.265596 0.120959 0.259541
v 0.305596 0.102304 0.23681
v 0.265596 0.102304 0.23681
v 0.305596 0.079574 0.218156
v 0.265596 0.079574 0.218156
v 0.305596 0.053641 0.204294
v 0.265596 0.053641 0.204294
v 0.265596 0.025502 0.195759
v 0.305596 0.025502 0.195759
vn 0 -0.098 -0.9952
vn 0 -0.2903 -0.9569
vn 0 -0.4714 -0.8819
vn 0 -0.6344 -0.773
vn 0 -0.773 -0.6344
vn 0 -0.8819 -0.4714
vn 0 -0.9569 -0.2903
vn 0 -0.9952 -0.098
vn 0 -0.9952 0.098
vn 0 -0.9569 0.2903
vn 0 -0.8819 0.4714
vn 0 -0.773 0.6344
vn 0 -0.6344 0.773
vn 0 -0.4714 0.8819
vn 0 -0.2903 0.9569
vn 0 -0.098 0.9952
vn 0 0.098 0.9952
vn 0 0.2903 0.9569
vn 0 0.4714 0.8819
vn 0 0.6344 0.773
vn 0 0.773 0.6344
vn 0 0.8819 0.4714
vn 0 0.9569 0.2903
vn 0 0.9952 0.098
vn 0 0.9952 -0.098
vn 0 0.9569 -0.2903
vn 0 0.8819 -0.4714
vn 0 0.773 -0.6344
vn 0 0.6344 -0.773
vn 0 0.4714 -0.8819
vn -1 0 -0
vn 0 0.2903 -0.9569
vn 0 0.098 -0.9952
vn 1 -0 0
usemtl material_1
f 1//1 2//1 3//1 4//1 
f 2//2 5//2 6//2 3//2 
f 5//3 7//3 8//3 6//3 
f 7//4 9//4 10//4 8//4 
f 9//5 11//5 12//5 10//5 
f 11//6 13//6 14//6 12//6 
f 13//7 15//7 16//7 14//7 
f 15//8 17//8 18//8 16//8 
f 17//9 19//9 20//9 18//9 
f 19//10 21//10 22//10 20//10 
f 21//11 23//11 24//11 22//11 
f 23//12 25//12 26//12 24//12 
f 25//13 27//13 28//13 26//13 
f 27//14 29//14 30//14 28//14 
f 29//15 31//15 32//15 30//15 
f 31//16 33//16 34//16 32//16 
f 33//17 35//17 36//17 34//17 
f 35//18 37//18 38//18 36//18 
f 37//19 39//19 40//19 38//19 
f 39//20 41//20 42//20 40//20 
f 41//21 43//21 44//21 42//21 
f 43//22 45//22 46//22 44//22 
f 45//23 47//23 48//23 46//23 
f 47//24 49//24 50//24 48//24 
f 49//25 51//25 52//25 50//25 
f 51//26 53//26 54//26 52//26 
f 53//27 55//27 56//27 54//27 
f 55//28 57//28 58//28 56//28 
f 57//29 59//29 60//29 58//29 
f 59//30 61//30 62//30 60//30 
f 3//31 6//31 8//31 10//31 12//31 14//31 16//31 18//31 20//31 22//31 24//31 26//31 28//31 30//31 32//31 34//31 36//31 38//31 40//31 42//31 44//31 46//31 48//31 50//31 52//31 54//31 56//31 58//31 60//31 62//31 63//31 4//31 
f 61//32 64//32 63//32 62//32 
f 64//33 1//33 4//33 63//33 
f 1//34 64//34 61//34 59//34 57//34 55//34 53//34 51//34 49//34 47//34 45//34 43//34 41//34 39//34 37//34 35//34 33//34 31//34 29//34 27//34 25//34 23//34 21//34 19//34 17//34 15//34 13//34 11//34 9//34 7//34 5//34 2//34 
s off
g _1
v -0.25 -0.078956 0.755033
v -0.25 0.581044 0.755033
v -0.25 0.581044 0.505033
v -0.25 -0.078956 0.505033
v 0.25 0.581044 0.505033
v 0.25 -0.078956 0.505033
v 0.25 0.581044 0.755033
v 0.25 -0.078956 0.755033
vn -1 0 0
vn 0 0 -1
vn 1 0 0
vn 0 0 1
vn 0 -1 0
vn 0 1 0
usemtl material_2
f 65//35 66//35 67//35 68//35 
f 68//36 67//36 69//36 70//36 
f 70//37 69//37 71//37 72//37 
f 72//38 71//38 66//38 65//38 
f 68//39 70//39 72//39 65//39 
f 69//40 67//40 66//40 71//40 
s off
g _2
v 0 0.083136 0.5
v 0 0.083136 -0.5
v 0.048773 0.08794 -0.5
v 0.048773 0.08794 0.5
v 0.095671 0.102166 -0.5
v 0.095671 0.102166 0.5
v 0.138893 0.125269 -0.5
v 0.138893 0.125269 0.5
v 0.176777 0.156359 -0.5
v 0.176777 0.156359 0.5
v 0.207867 0.194244 -0.5
v 0.207867 0.194244 0.5
v 0.23097 0.237465 -0.5
v 0.23097 0.237465 0.5
v 0.245196 0.284363 -0.5
v 0.245196 0.284364 0.5
v 0.25 0.333136 -0.5
v 0.25 0.333136 0.5
v 0.245196 0.381909 -0.5
v 0.245196 0.381909 0.5
v 0.23097 0.428807 -0.5
v 0.23097 0.428807 0.5
v 0.207867 0.472029 -0.5
v 0.207867 0.472029 0.5
v 0.176777 0.509913 -0.5
v 0.176777 0.509913 0.5
v 0.138893 0.541003 -0.5
v 0.138893 0.541004 0.5
v 0.095671 0.564106 -0.5
v 0.095671 0.564106 0.5
v 0.048773 0.578332 -0.5
v 0.048773 0.578332 0.5
v 0 0.583136 -0.5
v 0 0.583136 0.5
v -0.048773 0.578332 -0.5
v -0.048773 0.578332 0.5
v -0.095671 0.564106 -0.5
v -0.095671 0.564106 0.5
v -0.138893 0.541003 -0.5
v -0.138893 0.541003 0.5
v -0.176777 0.509913 -0.5
v -0.176777 0.509913 0.5
v -0.207868 0.472028 -0.5
v -0.207868 0.472028 0.5
v -0.23097 0.428807 -0.5
v -0.23097 0.428807 0.5
v -0.245196 0.381908 -0.5
v -0.245196 0.381908 0.5
v -0.25 0.333136 -0.5
v -0.25 0.333136 0.5
v -0.245196 0.284363 -0.5
v -0.245196 0.284363 0.5
v -0.23097 0.237465 -0.5
v -0.23097 0.237465 0.5
v -0.207867 0.194243 -0.5
v -0.207867 0.194243 0.5
v -0.176776 0.156359 -0.5
v -0.176776 0.156359 0.5
v -0.138892 0.125268 -0.5
v -0.138892 0.125269 0.5
v -0.095671 0.102166 -0.5
v -0.095671 0.102166 0.5
v -0.048772 0.08794 -0.5
v -0.048772 0.08794 0.5
vn 0.098 -0.9952 0
vn 0.2903 -0.9569 0
vn 0.4714 -0.8819 0
vn 0.6344 -0.773 0
vn 0.773 -0.6344 0
vn 0.8819 -0.4714 0
vn 0.9569 -0.2903 0
vn 0.9952 -0.098 0
vn 0.9952 0.098 -0
vn 0.9569 0.2903 -0
vn 0.8819 0.4714 -0
vn 0.773 0.6344 -0
vn 0.6344 0.773 -0
vn 0.4714 0.8819 0
vn 0.2903 0.9569 0
vn 0.098 0.9952 0
vn -0.098 0.9952 0
vn -0.2903 0.9569 -0
vn -0.4714 0.8819 -0
vn -0.6344 0.773 0
vn -0.773 0.6344 0
vn -0.8819 0.4714 -0
vn -0.9569 0.2903 -0
vn -0.9952 0.098 -0
vn -0.9952 -0.098 0
vn -0.9569 -0.2903 0
vn -0.8819 -0.4714 0
vn -0.773 -0.6344 0
vn -0.6344 -0.773 0
vn -0.4714 -0.8819 0
vn 0 0 -1
vn -0.2903 -0.9569 0
vn -0.098 -0.9952 0
vn 0 0 1
usemtl material_3
f 73//41 74//41 75//41 76//41 
f 76//42 75//42 77//42 78//42 
f 78//43 77//43 79//43 80//43 
f 80//44 79//44 81//44 82//44 
f 82//45 81//45 83//45 84//45 
f 84//46 83//46 85//46 86//46 
f 86//47 85//47 87//47 88//47 
f 88//48 87//48 89//48 90//48 
f 90//49 89//49 91//49 92//49 
f 92//50 91//50 93//50 94//50 
f 94//51 93//51 95//51 96//51 
f 96//52 95//52 97//52 98//52 
f 98//53 97//53 99//53 100//53 
f 100//54 99//54 101//54 102//54 
f 102//55 101//55 103//55 104//55 
f 104//56 103//56 105//56 106//56 
f 106//57 105//57 107//57 108//57 
f 108//58 107//58 109//58 110//58 
f 110//59 109//59 111//59 112//59 
f 112//60 111//60 113//60 114//60 
f 114//61 113//61 115//61 116//61 
f 116//62 115//62 117//62 118//62 
f 118//63 117//63 119//63 120//63 
f 120//64 119//64 121//64 122//64 
f 122//65 121//65 123//65 124//65 
f 124//66 123//66 125//66 126//66 
f 126//67 125//67 127//67 128//67 
f 128//68 127//68 129//68 130//68 
f 130//69 129//69 131//69 132//69 
f 132//70 131//70 133//70 134//70 
f 75//71 74//71 135//71 133//71 131//71 129//71 127//71 125//71 123//71 121//71 119//71 117//71 115//71 113//71 111//71 109//71 107//71 105//71 103//71 101//71 99//71 97//71 95//71 93//71 91//71 89//71 87//71 85//71 83//71 81//71 79//71 77//71 
f 134//72 133//72 135//72 136//72 
f 136//73 135//73 74//73 73//73 
f 73//74 76//74 78//74 80//74 82//74 84//74 86//74 88//74 90//74 92//74 94//74 96//74 98//74 100//74 102//74 104//74 106//74 108//74 110//74 112//74 114//74 116//74 118//74 120//74 122//74 124//74 126//74 128//74 130//74 132//74 134//74 136//74 
s off
g _3
v 0.25 -0.080016 -0.5
v 0.25 -0.080016 0.5
v -0.25 -0.080016 0.5
v -0.25 -0.080016 -0.5
v 0.25 0.080016 -0.5
v -0.25 0.080016 -0.5
v -0.25 0.080016 0.5
v 0.25 0.080016 0.5
vn 0 -1 0
vn 0 1 0
vn 1 0 0
vn -0 -0 1
vn -1 -0 -0
vn 0 0 -1
usemtl material_4
f 137//75 138//75 139//75 140//75 
f 141//76 142//76 143//76 144//76 
f 137//77 141//77 144//77 138//77 
f 138//78 144//78 143//78 139//78 
f 139//79 143//79 142//79 140//79 
f 141//80 137//80 140//80 142//80 
s off
g _4
v 0.305596 -0.003762 -0.428053
v 0.305596 -0.033025 -0.42517
v 0.265596 -0.033025 -0.42517
v 0.265596 -0.003762 -0.428053
v 0.305596 -0.061164 -0.416635
v 0.265596 -0.061164 -0.416635
v 0.305596 -0.087097 -0.402773
v 0.265596 -0.087097 -0.402773
v 0.305596 -0.109828 -0.384119
v 0.265596 -0.109828 -0.384119
v 0.305596 -0.128482 -0.361388
v 0.265596 -0.128482 -0.361388
v 0.305596 -0.142343 -0.335455
v 0.265596 -0.142343 -0.335455
v 0.305596 -0.150879 -0.307316
v 0.265596 -0.150879 -0.307316
v 0.305596 -0.153762 -0.278053
v 0.265596 -0.153762 -0.278053
v 0.305596 -0.150879 -0.248789
v 0.265596 -0.150879 -0.248789
v 0.305596 -0.142343 -0.22065
v 0.265596 -0.142343 -0.22065
v 0.305596 -0.128482 -0.194717
v 0.265596 -0.128482 -0.194717
v 0.305596 -0.109828 -0.171987
v 0.265596 -0.109828 -0.171987
v 0.305596 -0.087097 -0.153332
v 0.265596 -0.087097 -0.153332
v 0.305596 -0.061164 -0.139471
v 0.265596 -0.061164 -0.139471
v 0.305596 -0.033025 -0.130935
v 0.265596 -0.033025 -0.130935
v 0.305596 -0.003761 -0.128053
v 0.265596 -0.003761 -0.128053
v 0.305596 0.025502 -0.130935
v 0.265596 0.025502 -0.130935
v 0.305596 0.053641 -0.139471
v 0.265596 0.053641 -0.139471
v 0.305596 0.079574 -0.153332
v 0.265596 0.079574 -0.153332
v 0.305596 0.102305 -0.171987
v 0.265596 0.102305 -0.171987
v 0.305596 0.120959 -0.194717
v 0.265596 0.120959 -0.194717
v 0.305596 0.13482 -0.22065
v 0.265596 0.13482 -0.22065
v 0.305596 0.143356 -0.248789
v 0.265596 0.143356 -0.248789
v 0.305596 0.146238 -0.278053
v 0.265596 0.146238 -0.278053
v 0.305596 0.143356 -0.307316
v 0.265596 0.143356 -0.307316
v 0.305596 0.13482 -0.335455
v 0.265596 0.13482 -0.335455
v 0.305596 0.120959 -0.361388
v 0.265596 0.120959 -0.361388
v 0.305596 0.102304 -0.384119
v 0.265596 0.102304 -0.384119
v 0.305596 0.079574 -0.402773
v 0.265596 0.079574 -0.402773
v 0.305596 0.053641 -0.416635
v 0.265596 0.053641 -0.416635
v 0.265596 0.025502 -0.42517
v 0.305596 0.025502 -0.42517
vn -0 -0.098 -0.9952
vn 0 -0.2903 -0.9569
vn 0 -0.4714 -0.8819
vn 0 -0.6344 -0.773
vn 0 -0.773 -0.6344
vn 0 -0.8819 -0.4714
vn 0 -0.9569 -0.2903
vn 0 -0.9952 -0.098
vn 0 -0.9952 0.098
vn 0 -0.9569 0.2903
vn 0 -0.8819 0.4714
vn 0 -0.773 0.6344
vn 0 -0.6344 0.773
vn 0 -0.4714 0.8819
vn 0 -0.2903 0.9569
vn 0 -0.098 0.9952
vn 0 0.098 0.9952
vn 0 0.2903 0.9569
vn 0 0.4714 0.8819
vn 0 0.6344 0.773
vn 0 0.773 0.6344
vn 0 0.8819 0.4714
vn 0 0.9569 0.2903
vn 0 0.9952 0.098
vn 0 0.9952 -0.098
vn 0 0.9569 -0.2903
vn 0 0.8819 -0.4714
vn 0 0.773 -0.6344
vn 0 0.6344 -0.773
vn 0 0.4714 -0.8819
vn -1 0 -0
vn 0 0.2903 -0.9569
vn 0 0.098 -0.9952
vn 1 -0 0
usemtl material_5
f 145//81 146//81 147//81 148//81 
f 146//82 149//82 150//82 147//82 
f 149//83 151//83 152//83 150//83 
f 151//84 153//84 154//84 152//84 
f 153//85 155//85 156//85 154//85 
f 155//86 157//86 158//86 156//86 
f 157//87 159//87 160//87 158//87 
f 159//88 161//88 162//88 160//88 
f 161//89 163//89 164//89 162//89 
f 163//90 165//90 166//90 164//90 
f 165//91 167//91 168//91 166//91 
f 167//92 169//92 170//92 168//92 
f 169//93 171//93 172//93 170//93 
f 171//94 173//94 174//94 172//94 
f 173//95 175//95 176//95 174//95 
f 175//96 177//96 178//96 176//96 
f 177//97 179//97 180//97 178//97 
f 179//98 181//98 182//98 180//98 
f 181//99 183//99 184//99 182//99 
f 183//100 185//100 186//100 184//100 
f 185//101 187//101 188//101 186//101 
f 187//102 189//102 190//102 188//102 
f 189//103 191//103 192//103 190//103 
f 191//104 193//104 194//104 192//104 
f 193//105 195//105 196//105 194//105 
f 195//106 197//106 198//106 196//106 
f 197//107 199//107 200//107 198//107 
f 199//108 201//108 202//108 200//108 
f 201//109 203//109 204//109 202//109 
f 203//110 205//110 206//110 204//110 
f 147//111 150//111 152//111 154//111 156//111 158//111 160//111 162//111 164//111 166//111 168//111 170//111 172//111 174//111 176//111 178//111 180//111 182//111 184//111 186//111 188//111 190//111 192//111 194//111 196//111 198//111 200//111 202//111 204//111 206//111 207//111 148//111 
f 205//112 208//112 207//112 206//112 
f 208//113 145//113 148//113 207//113 
f 145//114 208//114 205//114 203//114 201//114 199//114 197//114 195//114 193//114 191//114 189//114 187//114 185//114 183//114 181//114 179//114 177//114 175//114 173//114 171//114 169//114 167//114 165//114 163//114 161//114 159//114 157//114 155//114 153//114 151//114 149//114 146//114 
s off
g _5
v -0.2656 -0.003762 -0.428053
v -0.2656 -0.033025 -0.42517
v -0.3056 -0.033025 -0.42517
v -0.3056 -0.003762 -0.428053
v -0.2656 -0.061164 -0.416635
v -0.3056 -0.061164 -0.416635
v -0.2656 -0.087097 -0.402773
v -0.3056 -0.087097 -0.402773
v -0.2656 -0.109828 -0.384119
v -0.3056 -0.109828 -0.384119
v -0.2656 -0.128482 -0.361388
v -0.3056 -0.128482 -0.361388
v -0.2656 -0.142343 -0.335455
v -0.3056 -0.142343 -0.335455
v -0.2656 -0.150879 -0.307316
v -0.3056 -0.150879 -0.307316
v -0.2656 -0.153762 -0.278053
v -0.3056 -0.153762 -0.278053
v -0.2656 -0.150879 -0.248789
v -0.3056 -0.150879 -0.248789
v -0.2656 -0.142343 -0.22065
v -0.3056 -0.142343 -0.22065
v -0.2656 -0.128482 -0.194717
v -0.3056 -0.128482 -0.194717
v -0.2656 -0.109828 -0.171987
v -0.3056 -0.109828 -0.171987
v -0.2656 -0.087097 -0.153332
v -0.3056 -0.087097 -0.153332
v -0.2656 -0.061164 -0.139471
v -0.3056 -0.061164 -0.139471
v -0.2656 -0.033025 -0.130935
v -0.3056 -0.033025 -0.130935
v -0.2656 -0.003761 -0.128053
v -0.3056 -0.003761 -0.128053
v -0.2656 0.025502 -0.130935
v -0.3056 0.025502 -0.130935
v -0.2656 0.053641 -0.139471
v -0.3056 0.053641 -0.139471
v -0.2656 0.079574 -0.153332
v -0.3056 0.079574 -0.153332
v -0.2656 0.102305 -0.171987
v -0.3056 0.102305 -0.171987
v -0.2656 0.120959 -0.194717
v -0.3056 0.120959 -0.194717
v -0.2656 0.13482 -0.22065
v -0.3056 0.13482 -0.22065
v -0.2656 0.143356 -0.248789
v -0.3056 0.143356 -0.248789
v -0.2656 0.146238 -0.278053
v -0.3056 0.146238 -0.278053
v -0.2656 0.143356 -0.307316
v -0.3056 0.143356 -0.307316
v -0.2656 0.13482 -0.335455
v -0.3056 0.13482 -0.335455
v -0.2656 0.120959 -0.361388
v -0.3056 0.120959 -0.361388
v -0.2656 0.102304 -0.384119
v -0.3056 0.102304 -0.384119
v -0.2656 0.079574 -0.402773
v -0.3056 0.079574 -0.402773
v -0.2656 0.053641 -0.416635
v -0.3056 0.053641 -0.416635
v -0.3056 0.025502 -0.42517
v -0.2656 0.025502 -0.42517
vn -0 -0.098 -0.9952
vn 0 -0.2903 -0.9569
vn 0 -0.4714 -0.8819
vn 0 -0.6344 -0.773
vn 0 -0.773 -0.6344
vn 0 -0.8819 -0.4714
vn 0 -0.9569 -0.2903
vn 0 -0.9952 -0.098
vn 0 -0.9952 0.098
vn 0 -0.9569 0.2903
vn 0 -0.8819 0.4714
vn 0 -0.773 0.6344
vn 0 -0.6344 0.773
vn 0 -0.4714 0.8819
vn 0 -0.2903 0.9569
vn 0 -0.098 0.9952
vn 0 0.098 0.9952
vn 0 0.2903 0.9569
vn 0 0.4714 0.8819
vn 0 0.6344 0.773
vn 0 0.773 0.6344
vn 0 0.8819 0.4714
vn 0 0.9569 0.2903
vn 0 0.9952 0.098
vn 0 0.9952 -0.098
vn 0 0.9569 -0.2903
vn 0 0.8819 -0.4714
vn 0 0.773 -0.6344
vn 0 0.6344 -0.773
vn 0 0.4714 -0.8819
vn -1 0 -0
vn 0 0.2903 -0.9569
vn 0 0.098 -0.9952
vn 1 -0 0
usemtl material_6
f 209//115 210//115 211//115 212//115 
f 210//116 213//116 214//116 211//116 
f 213//117 215//117 216//117 214//117 
f 215//118 217//118 218//118 216//118 
f 217//119 219//119 220//119 218//119 
f 219//120 221//120 222//120 220//120 
f 221//121 223//121 224//121 222//121 
f 223//122 225//122 226//122 224//122 
f 225//123 227//123 228//123 226//123 
f 227//124 229//124 230//124 228//124 
f 229//125 231//125 232//125 230//125 
f 231//126 233//126 234//126 232//126 
f 233//127 235//127 236//127 234//127 
f 235//128 237//128 238//128 236//128 
f 237//129 239//129 240//129 238//129 
f 239//130 241//130 242//130 240//130 
f 241//131 243//131 244//131 242//131 
f 243//132 245//132 246//132 244//132 
f 245//133 247//133 248//133 246//133 
f 247//134 249//134 250//134 248//134 
f 249//135 251//135 252//135 250//135 
f 251//136 253//136 254//136 252//136 
f 253//137 255//137 256//137 254//137 
f 255//138 257//138 258//138 256//138 
f 257//139 259//139 260//139 258//139 
f 259//140 261//140 262//140 260//140 
f 261//141 263//141 264//141 262//141 
f 263//142 265//142 266//142 264//142 
f 265//143 267//143 268//143 266//143 
f 267//144 269//144 270//144 268//144 
f 211//145 214//145 216//145 218//145 220//145 222//145 224//145 226//145 228//145 230//145 232//145 234//145 236//145 238//145 240//145 242//145 244//145 246//145 248//145 250//145 252//145 254//145 256//145 258//145 260//145 262//145 264//145 266//145 268//145 270//145 271//145 212//145 
f 269//146 272//146 271//146 270//146 
f 272//147 209//147 212//147 271//147 
f 209//148 272//148 269//148 267//148 265//148 263//148 261//148 259//148 257//148 255//148 253//148 251//148 249//148 247//148 245//148 243//148 241//148 239//148 237//148 235//148 233//148 231//148 229//148 227//148 225//148 223//148 221//148 219//148 217//148 215//148 213//148 210//148 
s off
g _6
v -0.2656 -0.003762 0.19288
v -0.2656 -0.033025 0.195762
v -0.3056 -0.033025 0.195762
v -0.3056 -0.003762 0.19288
v -0.2656 -0.061164 0.204298
v -0.3056 -0.061164 0.204298
v -0.2656 -0.087097 0.21816
v -0.3056 -0.087097 0.21816
v -0.2656 -0.109828 0.236814
v -0.3056 -0.109828 0.236814
v -0.2656 -0.128482 0.259544
v -0.3056 -0.128482 0.259544
v -0.2656 -0.142343 0.285477
v -0.3056 -0.142343 0.285477
v -0.2656 -0.150879 0.313616
v -0.3056 -0.150879 0.313616
v -0.2656 -0.153762 0.34288
v -0.3056 -0.153762 0.34288
v -0.2656 -0.150879 0.372144
v -0.3056 -0.150879 0.372144
v -0.2656 -0.142343 0.400283
v -0.3056 -0.142343 0.400283
v -0.2656 -0.128482 0.426216
v -0.3056 -0.128482 0.426216
v -0.2656 -0.109828 0.448946
v -0.3056 -0.109828 0.448946
v -0.2656 -0.087097 0.4676
v -0.3056 -0.087097 0.4676
v -0.2656 -0.061164 0.481462
v -0.3056 -0.061164 0.481462
v -0.2656 -0.033025 0.489998
v -0.3056 -0.033025 0.489998
v -0.2656 -0.003761 0.49288
v -0.3056 -0.003761 0.49288
v -0.2656 0.025502 0.489998
v -0.3056 0.025502 0.489998
v -0.2656 0.053641 0.481462
v -0.3056 0.053641 0.481462
v -0.2656 0.079574 0.4676
v -0.3056 0.079574 0.4676
v -0.2656 0.102305 0.448946
v -0.3056 0.102305 0.448946
v -0.2656 0.120959 0.426215
v -0.3056 0.120959 0.426215
v -0.2656 0.13482 0.400282
v -0.3056 0.13482 0.400282
v -0.2656 0.143356 0.372143
v -0.3056 0.143356 0.372143
v -0.2656 0.146238 0.34288
v -0.3056 0.146238 0.34288
v -0.2656 0.143356 0.313616
v -0.3056 0.143356 0.313616
v -0.2656 0.13482 0.285477
v -0.3056 0.13482 0.285477
v -0.2656 0.120959 0.259544
v -0.3056 0.120959 0.259544
v -0.2656 0.102304 0.236814
v -0.3056 0.102304 0.236814
v -0.2656 0.079574 0.218159
v -0.3056 0.079574 0.218159
v -0.2656 0.053641 0.204298
v -0.3056 0.053641 0.204298
v -0.3056 0.025502 0.195762
v -0.2656 0.025502 0.195762
vn 0 -0.098 -0.9952
vn 0 -0.2903 -0.9569
vn 0 -0.4714 -0.8819
vn 0 -0.6344 -0.773
vn 0 -0.773 -0.6344
vn 0 -0.8819 -0.4714
vn 0 -0.9569 -0.2903
vn 0 -0.9952 -0.098
vn 0 -0.9952 0.098
vn 0 -0.9569 0.2903
vn 0 -0.8819 0.4714
vn 0 -0.773 0.6344
vn 0 -0.6344 0.773
vn 0 -0.4714 0.8819
vn 0 -0.2903 0.9569
vn 0 -0.098 0.9952
vn 0 0.098 0.9952
vn 0 0.2903 0.9569
vn 0 0.4714 0.8819
vn 0 0.6344 0.773
vn 0 0.773 0.6344
vn 0 0.8819 0.4714
vn 0 0.9569 0.2903
vn 0 0.9952 0.098
vn 0 0.9952 -0.098
vn 0 0.9569 -0.2903
vn 0 0.8819 -0.4714
vn 0 0.773 -0.6344
vn 0 0.6344 -0.773
vn 0 0.4714 -0.8819
vn -1 0 -0
vn 0 0.2903 -0.9569
vn 0 0.098 -0.9952
vn 1 -0 0
usemtl material_7
f 273//149 274//149 275//149 276//149 
f 274//150 277//150 278//150 275//150 
f 277//151 279//151 280//151 278//151 
f 279//152 281//152 282//152 280//152 
f 281//153 283//153 284//153 282//153 
f 283//154 285//154 286//154 284//154 
f 285//155 287//155 288//155 286//155 
f 287//156 289//156 290//156 288//156 
f 289//157 291//157 292//157 290//157 
f 291//158 293//158 294//158 292//158 
f 293//159 295//159 296//159 294//159 
f 295//160 297//160 298//160 296//160 
f 297//161 299//161 300//161 298//161 
f 299//162 301//162 302//162 300//162 
f 301//163 303//163 304//163 302//163 
f 303//164 305//164 306//164 304//164 
f 305//165 307//165 308//165 306//165 
f 307//166 309//166 310//166 308//166 
f 309//167 311//167 312//167 310//167 
f 311//168 313//168 314//168 312//168 
f 313//169 315//169 316//169 314//169 
f 315//170 317//170 318//170 316//170 
f 317//171 319//171 320//171 318//171 
f 319//172 321//172 322//172 320//172 
f 321//173 323//173 324//173 322//173 
f 323//174 325//174 326//174 324//174 
f 325//175 327//175 328//175 326//175 
f 327//176 329//176 330//176 328//176 
f 329//177 331//177 332//177 330//177 
f 331//178 333//178 334//178 332//178 
f 275//179 278//179 280//179 282//179 284//179 286//179 288//179 290//179 292//179 294//179 296//179 298//179 300//179 302//179 304//179 306//179 308//179 310//179 312//179 314//179 316//179 318//179 320//179 322//179 324//179 326//179 328//179 330//179 332//179 334//179 335//179 276//179 
f 333//180 336//180 335//180 334//180 
f 336//181 273//181 276//181 335//181 
f 273//182 336//182 333//182 331//182 329//182 327//182 325//182 323//182 321//182 319//182 317//182 315//182 313//182 311//182 309//182 307//182 305//182 303//182 301//182 299//182 297//182 295//182 293//182 291//182 289//182 287//182 285//182 283//182 281//182 279//182 277//182 274//182 
s off
